<?xml version="1.0" encoding="UTF-8"?>
<svg id="Layer_9" xmlns="http://www.w3.org/2000/svg" viewBox="0 0 192.77 287.21">
  <path d="M0,244.33v-117.73h42.51v117.73H0Z"/>
  <path d="M75.06,244.56v-117.93h42.85c0,1.33,0,2.5,0,3.67,0,36.83-.03,73.65.06,110.48,0,2.96-.64,3.91-3.77,3.86-11.87-.2-23.75-.08-35.62-.08h-3.52Z"/>
  <path d="M150.08,244.31v-117.62h42.65v117.62h-42.65Z"/>
  <path d="M171.47.06c10.28,31.03,15.64,62.03,16.12,94.09h-32.16c.34-31.99,5.76-63.02,16.04-94.09Z"/>
  <path d="M37.37,94.2H5.3C5.51,62.05,11.1,31,21.29,0c10.19,30.94,15.71,61.94,16.08,94.2Z"/>
  <path d="M112.39,94.18h-32.07c.35-32.1,5.84-63.13,16.04-94.14,10.24,30.94,15.72,61.98,16.02,94.14Z"/>
  <path d="M150.09,287.13v-10.36h42.68v10.36h-42.68Z"/>
  <path d="M0,287.19v-10.47h42.48v10.47H0Z"/>
  <path d="M75.09,276.7h42.56v10.51h-42.56v-10.51Z"/>
  <path d="M76.49,115.58c.8-3.29,1.52-6.46,2.4-9.58.13-.44,1.03-.95,1.58-.95,11.03-.06,22.06-.04,33.2-.04.91,3.6,1.75,6.95,2.66,10.57h-39.84Z"/>
  <path d="M1.35,115.66c.82-3.28,1.5-6.38,2.42-9.4.17-.56,1.27-1.2,1.94-1.2,10.38-.08,20.76-.07,31.14-.01.66,0,1.77.45,1.9.91.91,3.12,1.62,6.3,2.46,9.7H1.35Z"/>
  <path d="M151.52,115.65c.9-3.65,1.74-7,2.64-10.64,3.33,0,6.59,0,9.86,0,7.37,0,14.74.09,22.11-.06,2.16-.04,2.98.7,3.34,2.71.47,2.61,1.22,5.17,1.92,7.99h-39.86Z"/>
  <path d="M31.84,265.8H10.69v-10.4h21.14v10.4Z"/>
  <path d="M107.02,255.41v10.35h-21.16v-10.35h21.16Z"/>
  <path d="M160.77,265.72v-10.35h21.3v10.35h-21.3Z"/>
</svg>