<?xml version="1.0" encoding="UTF-8"?><svg id="Layer_1" xmlns="http://www.w3.org/2000/svg" viewBox="0 0 595.28 594.67"><defs><style>.cls-1{stroke-width:0px;}</style></defs><path class="cls-5" d="m595.28,290.77v11.41c-5.83,13.97-16.97,18.8-31.21,17.2-7.59,64.48-31.36,120.56-77.2,166.24-45.86,45.7-101.46,71.26-166.63,77.81,2.25,14.92-3.26,25.4-16.88,31.22h-11.45c-14.01-5.81-18.86-16.92-17.22-31.3-65.15-6.7-120.56-32.17-166.28-77.73-45.97-45.81-69.81-102.1-77.29-166.64-14.81,2.31-25.27-3.27-31.13-16.82v-11.41c5.79-14.03,16.85-18.97,31.36-17.06,6.66-65.03,32.14-120.3,77.9-165.79,45.68-45.4,101.25-70.49,165.06-76.93C275.93,9.37,282.74-.31,296.89,0c5.1.12,10.8,2.25,15.05,5.16,8.83,6.04,9.19,15.94,8.49,25.81,64.97,6.52,120.42,31.89,166.07,77.44,45.62,45.53,70.86,100.91,77.48,165.54,15-2.31,25.45,3.27,31.3,16.82Zm-77.75-17.12c-10.28-104.27-95.37-186.9-196.99-196.37v7.76c0,18.07,0,36.13,0,54.2,0,17.31-8.45,27.61-22.71,27.7-14.55.09-23.07-10.27-23.08-28.04,0-18.07,0-36.13,0-54.2v-7.5c-109.46,11.17-188.78,100.64-196.77,196.47,17.17,0,34.3-.15,51.42.05,13.26.15,23.45,10.43,23.29,22.99-.16,12.37-10.11,22.31-23.01,22.54-12.87.23-25.75.06-38.62.06-4.42,0-8.83,0-13.33,0,11.89,108.58,97.06,188.78,197.03,197.57,0-2.63,0-5.2,0-7.77,0-19.73-.17-39.46.08-59.19.16-12.98,10.12-22.48,22.83-22.47,12.66,0,22.54,9.57,22.82,22.54.25,11.64.06,23.29.07,34.94,0,10.66,0,21.31,0,32.02,114.03-10.58,189.56-106.05,196.42-197.63-2.63,0-5.22,0-7.81,0-19.55,0-39.1.15-58.65-.06-13.09-.14-22.79-9.87-22.94-22.43-.16-13.27,9.66-23.04,23.64-23.13,21.9-.14,43.81-.04,66.33-.04Z"/><path class="cls-5" d="m327.98,296.24c.1,17.02-13.11,30.4-30.12,30.5-17.08.1-30.49-13.07-30.58-30.03-.1-17.04,13.09-30.39,30.11-30.49,17.1-.1,30.49,13.04,30.59,30.02Z"/></svg>