<?xml version="1.0" encoding="UTF-8"?>
<svg id="Layer_1" xmlns="http://www.w3.org/2000/svg" viewBox="0 0 444 440">
  <defs>
    <style>
      .cls-3 {
        fill: #fff;
      }

      .cls-4 {
        fill: #45c96a;
      }
    </style>
  </defs>
  <circle class="cls-4" cx="280" cy="220" r="131"/>
  <g>
    <path class="cls-3" d="M301.96,159.8c3.97-.09,4.28.1,4.75,3.93,1.01,8.18,1.9,16.37,2.93,24.55.19,1.53-.12,2.61-1.27,3.7-3.54,3.39-6.93,6.93-10.46,10.33-.66.64-1.68,1.27-2.55,1.29-20.46.32-38.86,7.15-55.99,17.79-18.47,11.47-34.51,25.7-47.77,43.02-1.73,2.26-3.78,4.35-5.95,6.2-2.88,2.45-6.21,2.51-9.62.94-3.44-1.58-5.34-4.24-5.52-7.99-.31-6.47,1.8-12.28,5.38-17.53,16.57-24.3,38.68-41.93,65.49-53.75,16.03-7.07,32.74-11.78,50.18-13.77,4.97-.57,6.93-3.19,6.3-8.1-.28-2.24-.49-4.48-.67-6.73-.27-3.24.28-3.81,3.6-3.88.39,0,.78,0,1.17,0Z"/>
    <path class="cls-3" d="M342.88,200.91c0,.62-.01,1.24,0,1.87.04,2.13-1.1,2.95-3.1,2.77-2.48-.22-4.96-.41-7.43-.72-4.94-.63-7.58,1.27-8.15,6.24-1.79,15.47-5.7,30.39-11.51,44.81-11.81,29.34-30.24,53.46-56.58,71.26-4.78,3.23-10.15,5.05-16,5.07-4.11.01-7.17-1.68-8.97-5.5-1.83-3.9-1.31-7.5,1.58-10.56,2.07-2.19,4.43-4.13,6.78-6.03,23.86-19.25,42.75-42.26,53.67-71.22,3.73-9.89,5.65-20.19,5.91-30.79.03-1.17.62-2.58,1.42-3.43,3.41-3.63,6.96-7.13,10.55-10.57.63-.6,1.76-1.11,2.59-1.02,8.58.91,17.16,1.9,25.72,2.98,3.53.45,3.64.74,3.51,4.85Z"/>
    <path class="cls-3" d="M368.31,132.57c-1.45,1.27-3.04,2.52-4.47,3.93-6.13,6.07-12.24,12.17-18.31,18.3-.89.9-1.63,1.23-3.01.9-4.45-1.06-8.12,2.76-7.33,7.3.14.82-.02,2.05-.55,2.59-6.86,6.99-13.81,13.89-20.75,20.81-.16.16-.37.25-.88.59-.23-1.73-.45-3.29-.65-4.84-.55-4.32-1.37-8.62-1.51-12.95-.07-2.11,1.03-4.29,1.78-6.38,2.36-6.5,4.85-12.94,7.21-19.44.5-1.38,1.25-2.09,2.68-2.52,12.41-3.77,24.8-7.61,37.18-11.45,4.89-1.52,4.88-1.55,8.61,3.16Z"/>
    <path class="cls-3" d="M315.35,189.72c7.64-7.63,14.78-14.78,21.98-21.88.41-.4,1.38-.51,2.01-.37,5.04,1.09,8.79-2.64,7.74-7.68-.14-.68.03-1.72.48-2.18,7.43-7.53,14.93-15,22.42-22.47.16-.16.39-.25,1.11-.69.91,1.1,2.02,2.22,2.84,3.52.37.59.4,1.61.19,2.31-4.14,13.52-8.32,27.03-12.56,40.52-.22.69-.93,1.48-1.59,1.74-8.12,3.12-16.28,6.16-24.44,9.2-.43.16-.92.31-1.35.25-6.08-.72-12.15-1.47-18.81-2.29Z"/>
  </g>
</svg>