<?xml version="1.0" encoding="UTF-8"?>
<svg id="Layer_1" xmlns="http://www.w3.org/2000/svg" viewBox="0 0 267 267">
  <defs>
    <style>
      .cls-1 {
        fill: #fff;
      }

      .cls-2 {
        fill: #1e2236;
        stroke: #fff;
        stroke-miterlimit: 10;
        stroke-width: 5px;
      }
    </style>
  </defs>
  <circle class="cls-2" cx="133.5" cy="133.5" r="131"/>
  <g>
    <path class="cls-1" d="M29.5,135.61c6.45-5.93,12.5-11.94,19.02-17.38,16.23-13.55,34.15-24.25,54.39-30.82,11.12-3.61,22.52-5.5,34.2-5.42,12.43.08,24.45,2.6,36.09,6.86,26.57,9.71,48.95,25.6,68.07,46.26.24.26.43.56.88,1.14-2.84,2.9-5.59,5.88-8.54,8.67-18.1,17.11-38.42,30.74-62.1,38.95-15.36,5.33-31.14,7.5-47.35,5.52-13.98-1.71-27.23-5.95-39.83-12.16-19.85-9.79-37.38-22.76-52.47-38.98-.63-.68-1.23-1.37-2.36-2.63h0ZM174.68,136.03c.37-20.21-17.01-38.26-37.18-38.6-22.36-.38-39.76,16.26-40.18,38.41-.39,20.59,16.99,38.56,37.6,38.86,22.04.32,39.36-16.52,39.76-38.66h0ZM173.65,101.72c17.43,22.9,17.42,45.53.1,68.58,19.73-8.1,36.56-19.87,51.9-34.24-15.46-14.57-32.35-26.34-52-34.35h0ZM98.32,101.72c-19.59,8.07-36.53,19.87-51.98,34.3,15.37,14.49,32.17,26.23,51.94,34.32-17.47-23.19-17.26-45.81.03-68.61h0Z"/>
    <path class="cls-1" d="M113.94,134.46c6.93,3.99,12.59,3.28,15.98-1.89,3.51-5.34,1.83-10.56-5-15.59,6.86-5.13,18.72-3.96,26.03,2.58,7.73,6.91,9.57,18.75,4.3,27.62-5.58,9.37-16.6,13.41-26.74,9.79-9.43-3.36-15.93-13.31-14.57-22.51Z"/>
  </g>
</svg>