<?xml version="1.0" encoding="UTF-8"?><svg id="Layer_1" xmlns="http://www.w3.org/2000/svg" viewBox="0 0 595.28 644.51"><defs><style>.cls-5{stroke-width:0px;}</style></defs><path class="cls-5" d="m258.54,0C284.61,0,310.67,0,336.73,0c.64.41,1.24,1.09,1.92,1.18,13.29,1.74,26.69,2.92,39.88,5.21,28.03,4.88,54.92,13.51,80.67,25.73,23.07,10.96,44.4,24.5,63.14,41.83,22.55,20.85,40.53,45.07,52.8,73.38,8.7,20.06,14.81,40.79,17.64,62.49.62,4.77,1.64,9.49,2.48,14.23v52.87c-.41.64-1.08,1.24-1.18,1.92-2.59,16.24-4.24,32.68-7.86,48.68-5.18,22.84-13.25,44.77-24.92,65.28-2.67,4.7-6.24,10.17-5.9,15.03.78,10.89,2.38,21.48,1.01,32.62-3.51,28.55-18.42,49.7-40.49,66.81-14.53,11.26-31.12,18.22-48.39,23.97-5.53,1.84-11.84,3.34-12.59,10.92-.72,7.18-1.63,14.34-2.15,21.53-2.09,28.73-16.24,49.65-41.46,63.06-23.46,12.47-49.33,16.38-75.26,17.38-28.23,1.09-56.57-.37-84.85-.96-16.81-.35-33.18-3.71-49.11-8.86-22.11-7.15-40.73-19-51.58-40.49-7.24-14.33-9.08-29.81-9.31-45.61-.09-6.39-1.07-12.31-8.37-14.88-7.35-2.59-14.6-5.45-21.82-8.38-28.54-11.57-51.72-29.41-64.81-57.94-7.12-15.53-10.35-32.02-7.35-49.38.92-5.3,1.74-11.53-.17-16.21-4.94-12.11-12.03-23.33-17.18-35.38-10.05-23.52-16.17-48.17-19.05-73.61C1.89,287.23.84,282.09,0,276.92,0,259.3,0,241.67,0,224.05c.86-6.21,1.41-12.48,2.65-18.62,5.25-25.99,11.78-51.69,25.92-74.46,9.19-14.8,18.83-29.61,30.29-42.65,24.69-28.08,55.72-47.62,90.16-61.97,30.17-12.58,61.48-20.51,93.99-23.89C248.22,1.93,253.37.84,258.54,0Zm283.64,364.72c.69-.04,1.37-.08,2.06-.11.43-1.14.8-2.32,1.3-3.43,13.72-30.18,19.95-62.22,21.69-94.98.9-16.94-.92-34.08-2.32-51.06-1.82-22.12-8.7-42.98-18.3-62.88-12.47-25.87-30.56-47.27-52.78-65.48-20.81-17.05-44.21-29.42-69.17-38.81-40.87-15.36-83.64-20.44-127-21.46-5.58-.13-11.19.69-16.77,1.2-18.36,1.67-36.92,2.25-55.03,5.39-23.65,4.11-46.7,10.79-68.84,20.6-27.63,12.23-52.57,27.88-73.65,49.79-16.1,16.74-28.78,35.36-38.16,56.59-10.64,24.07-15.72,49.34-17.26,75.27-1.23,20.54.12,41.09,3.44,61.54,3.8,23.41,9.88,46.02,20.8,67.74,4.64-14.66,8.66-29.39,12-44.27,1.29-5.74,6.49-11.38,12.4-12.02,10.48-1.12,18.08,7.93,15.03,20.77-2.92,12.31-6.88,24.38-10.64,36.48-6.64,21.37-14.68,42.22-14.4,65.35.28,22.71,11.55,38.63,27.77,52.34,12.66,10.7,27.9,16.32,43.37,21.46,15.83,5.26,27.53,14.65,30.15,32.16,1.19,7.95,1.79,15.99,2.34,24.02.77,11.26,4.58,21.11,12.14,29.63,9.06,10.21,21.2,14.82,33.67,18.58,25.07,7.56,51.12,7.73,76.92,8.66,15.75.57,31.6-1.37,47.41-2.27,15.7-.89,31-3.73,45.97-8.71,24.05-8,39.69-25.24,38.97-52.23-.23-8.63,1.72-17.68,4.46-25.95,4.78-14.41,17.54-20,30.63-25.21,12.14-4.83,24.55-9.69,35.5-16.65,14.75-9.37,26.69-22.46,30.92-39.86,4.51-18.57,1.49-37.28-4.1-55.39-5.55-18-11.76-35.79-17.25-53.8-1.54-5.05-2.09-10.56-2.12-15.86-.05-7.57,6.16-13.37,13.39-13.44,7.39-.07,12.94,5.37,14.37,11.91,3.27,14.9,7.34,29.63,11.08,44.43Z"/><path class="cls-5" d="m272.59,366.03c-1.51,32.56-16.21,57.31-44.88,73.22-8.79,4.88-18.63,6.95-28.92,7.84-13.24,1.14-25.6-1.14-38.09-4.99-19.03-5.86-27.42-20.33-30.61-38.11-4.63-25.86.94-50.71,12.95-73.51,11.03-20.93,29.46-32.35,53.53-34.86,12-1.25,23.26.68,34.55,3.93,16.95,4.88,27.26,17.18,34.52,32.14,5.16,10.63,7.43,22.23,6.94,34.35Z"/><path class="cls-5" d="m466.78,382.81c-.19,20.38-3.28,34.32-12.72,46.5-6.74,8.7-16.2,12.26-26.2,14.99-19.92,5.43-39.59,4.51-58.44-3.94-13.93-6.25-24.47-16.78-32.89-29.42-10.44-15.66-14.98-32.9-13.66-51.64,1.63-22.97,10.63-42.32,30.36-54.94,7.01-4.49,15.9-6.89,24.26-8.26,15.44-2.52,30.73-1.04,45.14,5.99,21.93,10.71,33.32,29.31,38.81,52.04,2.69,11.16,4.24,22.59,5.35,28.68Z"/><path class="cls-5" d="m298.12,524.34c-5.14,7.71-10.11,16.71-16.58,24.46-7.26,8.69-19.02,7.65-25.56,4.2-8.83-4.65-13.1-15.61-10.83-25.47,5.43-23.5,16.2-44.27,32.24-62.22,4.75-5.31,10.16-10.18,15.92-14.36,1.97-1.43,6.92-1.39,8.8.11,7.05,5.63,14.27,11.46,19.81,18.48,12.15,15.4,21.41,32.59,26.77,51.6,2.2,7.8,3.56,15.81-.95,23.39-8.41,14.14-28.44,14.33-38.28,0-4.67-6.8-8.14-14.42-11.33-20.19Z"/></svg>