<?xml version="1.0" encoding="UTF-8"?>
<svg id="Layer_1" xmlns="http://www.w3.org/2000/svg" viewBox="0 0 479 445">
  <path d="M252.17,3.97c21.69,0,43.39-.02,65.08,0,10.68.01,13.98,3.3,13.98,13.84,0,40.3.1,80.61-.12,120.91-.03,5.07,1.48,6.15,6.28,6.13,40.64-.19,81.27-.11,121.91-.1,10.53,0,13.72,3.15,13.72,13.52,0,42.89.01,85.79,0,128.68,0,10.08-3.27,13.31-13.43,13.31-40.48,0-80.95,0-121.43,0q-6.92,0-6.93,6.71c0,40.14,0,80.28,0,120.42,0,10.26-3.35,13.64-13.7,13.64-43.71.02-87.43.02-131.14,0-9.16,0-12.65-3.5-12.65-12.63-.02-40.79-.09-81.58.09-122.36.02-4.75-1.43-5.9-6.01-5.88-40.8.17-81.6.1-122.4.09-10.2,0-13.47-3.21-13.47-13.27-.01-43.05-.01-86.11,0-129.16,0-9.76,3.36-13.08,13.18-13.08,40.48-.01,80.95,0,121.43,0q7.17,0,7.17-6.95c0-39.98,0-79.96,0-119.94,0-10.81,3.07-13.88,13.84-13.89,21.53,0,43.07,0,64.6,0Z"/>
</svg>