<?xml version="1.0" encoding="UTF-8"?><svg id="Layer_1" xmlns="http://www.w3.org/2000/svg" viewBox="0 0 595.28 594.67"><defs><style>.cls-1{stroke-width:0px;}</style></defs><path class="cls-1" d="m563.97,273.96c-6.62-64.63-31.85-120.02-77.48-165.54-45.65-45.55-101.1-70.91-166.07-77.44.7-9.87.34-19.77-8.49-25.81-4.26-2.91-9.95-5.04-15.05-5.16-14.15-.32-20.96,9.36-22.56,30.99-63.81,6.45-119.38,31.53-165.06,76.93-45.76,45.48-71.24,100.76-77.9,165.79-14.51-1.91-25.57,3.03-31.36,17.06v11.41c5.87,13.55,16.32,19.13,31.13,16.82,7.48,64.54,31.32,120.83,77.29,166.64,45.71,45.56,101.12,71.02,166.28,77.73-1.64,14.37,3.21,25.49,17.22,31.3h11.45c13.62-5.83,19.12-16.31,16.88-31.22,65.17-6.55,120.77-32.11,166.63-77.81,45.84-45.68,69.61-101.77,77.2-166.24,14.24,1.6,25.38-3.24,31.21-17.2v-11.41c-5.85-13.55-16.3-19.13-31.3-16.82Zm-266.33,256.83c-128.93,0-233.45-104.52-233.45-233.45S168.71,63.88,297.64,63.88s233.45,104.52,233.45,233.45-104.52,233.45-233.45,233.45Z"/></svg>