<?xml version="1.0" encoding="UTF-8"?><svg id="Layer_2" xmlns="http://www.w3.org/2000/svg" viewBox="0 0 581.31 768.32"><defs><style>.cls-1{stroke-width:0px;}</style></defs><g id="Layer_1-2"><path class="cls-1" d="m581.31,193.1c-.88,138.34-17.48,265.72-80.1,383.12-41.85,78.45-101.46,139.42-179.81,182.59-22.32,12.3-40,12.89-62.43.52-128.39-70.82-197.71-184.23-233.69-321.52C-3.07,329.66-2.82,219.16,3.39,108.61c.48-8.48,10.74-20.88,19.1-23.76C106.5,55.92,190.89,28.06,275.67,1.49c11.15-3.49,25.76-.21,37.63,3.54,79.05,25.01,157.59,51.64,236.78,76.19,18.66,5.78,27.96,13.91,28.04,34.01.11,28.49,2.25,56.97,3.19,77.87Zm-45.41,43.96c-1.03-15.93-4.9-44.42-4.06-72.78.63-21.37-9-28.67-26.99-34.31-64.41-20.2-128.26-42.19-192.77-62.02-12.74-3.92-28.59-4.91-41.12-1.08-66.82,20.45-133.39,41.89-199.11,65.57-10.74,3.87-24.22,20.87-23.9,31.42,2.44,80.45.69,162.06,14.25,240.9,21.57,125.48,83.93,228.23,199.55,292.44,19.78,10.98,36.19,11.51,56.1.16,59.08-33.67,106.88-78.16,141.93-136.73,57.42-95.96,72.17-202.07,76.13-323.58Z"/><path class="cls-1" d="m516.71,244.23c1.5,102.22-13.66,200.98-62.26,292.61-32.01,60.35-78.18,106.55-136.48,141.95-21.32,12.95-37.79,10.55-58.26-1.55-107.28-63.43-162.53-162.4-182.47-280.14-12.18-71.93-9.34-146.4-13.4-219.72-1.07-19.31,6.88-29.36,26.27-35.2,60.12-18.1,119.41-38.96,179.51-57.14,12.49-3.78,28.08-3.89,40.53-.09,58.92,18,116.89,39.16,175.98,56.57,23.47,6.91,33.33,17.57,30.99,42.12-1.91,20.03-.39,40.38-.39,60.59Z"/></g></svg>